<svg id="Layer_1" data-name="Layer 1" xmlns="http://www.w3.org/2000/svg" viewBox="0 0 25 25"><defs><style>.cls-1{fill:#5a3c17;}.cls-2{fill:none;stroke:#fff;stroke-miterlimit:10;stroke-width:1.5px;}</style></defs><title>icons</title><g id="Layer_2" data-name="Layer 2"><g id="Layer_1-2" data-name="Layer 1-2"><circle class="cls-1" cx="12.5" cy="12.5" r="11.37"/><path class="cls-2" d="M10.51,5.42a1.4,1.4,0,0,1,.93,1A10.5,10.5,0,0,1,12,8.54a.89.89,0,0,1-.5,1c-.4.2-.81.38-1.22.55s-.36.23-.25.55a14.05,14.05,0,0,0,3.59,5.53c.22.21.36.18.57,0a8.33,8.33,0,0,1,.84-.84,1,1,0,0,1,.93-.24,1.3,1.3,0,0,1,.32.14,8.88,8.88,0,0,1,1.85,1.5,2.65,2.65,0,0,1,.21.26,1.07,1.07,0,0,1,0,1.44,3.31,3.31,0,0,1-2.09,1.18l-.15,0h-.66l-.72-.15a7.06,7.06,0,0,1-2.15-1.14A12.27,12.27,0,0,1,9.28,14.7a12.12,12.12,0,0,1-1.75-4.53c0-.31-.08-.62-.12-.92V8.62l0-.11a3.36,3.36,0,0,1,1.19-2.3,3.57,3.57,0,0,1,1.46-.78Z"/></g></g></svg>