<?xml version="1.0" encoding="utf-8"?>
<!-- Generator: Adobe Illustrator 22.1.0, SVG Export Plug-In . SVG Version: 6.00 Build 0)  -->
<svg version="1.1" id="Layer_1" xmlns="http://www.w3.org/2000/svg" xmlns:xlink="http://www.w3.org/1999/xlink" x="0px" y="0px"
	 viewBox="0 0 25 25" style="enable-background:new 0 0 25 25;" xml:space="preserve">
<g>
	<path d="M10.2,12.5c0-1.3,1.1-2.3,2.4-2.3s2.3,1,2.3,2.3s-1.1,2.3-2.3,2.3C11.2,14.9,10.2,13.8,10.2,12.5z"/>
	<path d="M15.2,9.4V8.3c0-0.2,0.2-0.4,0.4-0.4h1.2c0.2,0,0.4,0.2,0.4,0.4v1.2c0,0.2-0.2,0.4-0.4,0.4h-1.2
		C15.4,9.8,15.2,9.6,15.2,9.4z"/>
	<path d="M15.9,11.3h1.5V17c0,0.2-0.2,0.4-0.4,0.4H7.9c-0.2,0-0.4-0.2-0.4-0.4v-5.7H9c-0.2,0.3-0.3,0.8-0.3,1.2
		c0,2.1,1.7,3.7,3.7,3.7c2.1,0,3.7-1.7,3.7-3.7C16.2,12.2,16.2,11.6,15.9,11.3z"/>
	<path d="M12.5,1.2c-6.2,0-11.2,5-11.2,11.2s5,11.2,11.2,11.2s11.2-5,11.2-11.2S18.7,1.2,12.5,1.2z M18.6,17.2
		c0,0.8-0.6,1.4-1.4,1.4H7.8c-0.8,0-1.5-0.6-1.5-1.4V7.8C6.4,7,7,6.4,7.8,6.4h9.3c0.8,0,1.4,0.6,1.4,1.4v9.4H18.6z"/>
</g>
</svg>
