<svg xmlns="http://www.w3.org/2000/svg" viewBox="0 0 423.94 60.96"><defs><style>.cls-1{fill:#ffd892;}</style></defs><title>Asset 1ldpi</title><g id="Layer_2" data-name="Layer 2"><g id="Layer_1-2" data-name="Layer 1"><polygon class="cls-1" points="30.47 0 39.89 19.08 60.94 22.14 45.71 36.99 49.3 57.96 30.47 48.06 11.64 57.96 15.24 36.99 0 22.14 21.05 19.08 30.47 0"/><polygon class="cls-1" points="116.47 3 125.89 22.08 146.94 25.14 131.71 39.99 135.3 60.96 116.47 51.06 97.64 60.96 101.24 39.99 86 25.14 107.06 22.08 116.47 3"/><polygon class="cls-1" points="205.47 3 214.89 22.08 235.94 25.14 220.71 39.99 224.3 60.96 205.47 51.06 186.64 60.96 190.24 39.99 175 25.14 196.06 22.08 205.47 3"/><polygon class="cls-1" points="296.47 3 305.89 22.08 326.94 25.14 311.71 39.99 315.3 60.96 296.47 51.06 277.64 60.96 281.24 39.99 266 25.14 287.06 22.08 296.47 3"/><polygon class="cls-1" points="393.47 3 402.89 22.08 423.94 25.14 408.71 39.99 412.3 60.96 393.47 51.06 374.64 60.96 378.24 39.99 363 25.14 384.06 22.08 393.47 3"/></g></g></svg>