<svg id="Layer_1" data-name="Layer 1" xmlns="http://www.w3.org/2000/svg" viewBox="0 0 25 25"><defs><style>.cls-1{fill:#5a3c17;}.cls-2{fill:#fff;stroke:#fff;stroke-miterlimit:10;stroke-width:0.32px;opacity:0.9;isolation:isolate;}</style></defs><title>icons</title><path d="M12.5,1.3A11.25,11.25,0,1,0,23.8,12.5,11.25,11.25,0,0,0,12.5,1.3Zm5.2,8.5v.4A7.68,7.68,0,0,1,10.14,18h0A8.15,8.15,0,0,1,6,16.8h.6a4.82,4.82,0,0,0,3.3-1.2,2.57,2.57,0,0,1-2.5-1.9h.5a1.66,1.66,0,0,0,.7-.1,2.8,2.8,0,0,1-2.1-2.7h0a2.63,2.63,0,0,0,1.2.3A2.8,2.8,0,0,1,6.5,8.9a2.32,2.32,0,0,1,.4-1.4,7.39,7.39,0,0,0,5.5,2.9c0-.2-.1-.4-.1-.6A2.68,2.68,0,0,1,15,7.1h0A2.51,2.51,0,0,1,17,8a5.27,5.27,0,0,0,1.7-.7,2.53,2.53,0,0,1-1.2,1.5A8.74,8.74,0,0,0,19,8.4,5.59,5.59,0,0,1,17.7,9.8Z"/><circle class="cls-1" cx="12.5" cy="12.5" r="11.39"/><path class="cls-2" d="M15.18,8A.21.21,0,0,0,15,7.79a4.83,4.83,0,0,0-1.64-.32,2.88,2.88,0,0,0-1.49.38h0a1.7,1.7,0,0,0-.58.52,2.44,2.44,0,0,0-.41,1,6.11,6.11,0,0,0-.08.86H10a.23.23,0,0,0-.16.06.2.2,0,0,0-.06.15v1.42a.21.21,0,0,0,.2.22H11c0,1,.05,2.43.05,3.57v1.67a.21.21,0,0,0,.21.21h1.9a.21.21,0,0,0,.21-.21v-5.2h1a.24.24,0,0,0,.16-.07.2.2,0,0,0,.06-.15V10.59a.27.27,0,0,0-.06-.17.28.28,0,0,0-.15-.08H13.28a1.21,1.21,0,0,1,0-.38.79.79,0,0,1,.08-.26.64.64,0,0,1,.08-.14.53.53,0,0,1,.41-.15,2.1,2.1,0,0,1,.74.17h.22A5.11,5.11,0,0,1,15,9a3.28,3.28,0,0,0,.08-.38,2,2,0,0,0,0-.35A.65.65,0,0,0,15.18,8ZM13.39,9.11a.73.73,0,0,0-.27.22,1.18,1.18,0,0,0-.23.51,3.68,3.68,0,0,0-.06.66v.08a.18.18,0,0,0,.18.18h1.13v.92h-1a.21.21,0,0,0-.21.21h0v5.22H11.56V15.64c0-1.21,0-2.81-.06-3.79a.22.22,0,0,0-.21-.2h-1v-1h.82a.22.22,0,0,0,.2-.21,4.66,4.66,0,0,1,.16-1.29,1.72,1.72,0,0,1,.25-.53,1.33,1.33,0,0,1,.45-.4h0a2.49,2.49,0,0,1,1.28-.33,4.54,4.54,0,0,1,1.36.25,1,1,0,0,1,0,.24,2,2,0,0,1-.12.52l-.06.23A2.17,2.17,0,0,0,13.87,9,1,1,0,0,0,13.39,9.11Z"/></svg>