<?xml version="1.0" encoding="utf-8"?>
<!-- Generator: Adobe Illustrator 22.0.0, SVG Export Plug-In . SVG Version: 6.00 Build 0)  -->
<svg version="1.1" id="Layer_1" xmlns="http://www.w3.org/2000/svg" xmlns:xlink="http://www.w3.org/1999/xlink" x="0px" y="0px"
	 viewBox="0 0 25 25" style="enable-background:new 0 0 25 25;" xml:space="preserve">
<style type="text/css">
	.st0{fill:#5A3C17;}
	.st1{opacity:0.9;fill:#FFFFFF;stroke:#FFFFFF;stroke-width:0.32;stroke-miterlimit:10;enable-background:new    ;}
	.st2{fill:none;stroke:#FFFFFF;stroke-width:1.5;stroke-miterlimit:10;}
	.st3{opacity:0.9;}
	.st4{fill:none;stroke:#FFFFFF;stroke-width:1.16;stroke-miterlimit:10;}
	.st5{fill:none;stroke:#FFFFFF;stroke-width:1.42;stroke-miterlimit:10;}
	.st6{fill:#FFFFFF;}
</style>
<title>footericons</title>
<path d="M-32.5,1.3c-6.2,0-11.2,5.1-11.2,11.3s5.1,11.2,11.3,11.2c6.2,0,11.2-5.1,11.2-11.3C-21.3,6.3-26.3,1.3-32.5,1.3z
	 M-27.3,9.8v0.4c0.1,4.2-3.3,7.7-7.6,7.8c0,0,0,0,0,0c-1.4,0-2.9-0.4-4.1-1.2h0.6c1.2,0,2.4-0.4,3.3-1.2c-1.2,0-2.2-0.8-2.5-1.9h0.5
	c0.2,0,0.5,0,0.7-0.1c-1.2-0.3-2.1-1.4-2.1-2.7l0,0c0.4,0.2,0.8,0.3,1.2,0.3c-0.8-0.5-1.2-1.4-1.2-2.3c0-0.5,0.1-1,0.4-1.4
	c1.3,1.7,3.3,2.8,5.5,2.9c0-0.2-0.1-0.4-0.1-0.6c0-1.5,1.2-2.7,2.7-2.7c0,0,0,0,0,0c0.8,0,1.5,0.3,2,0.9c0.6-0.1,1.2-0.4,1.7-0.7
	c-0.2,0.6-0.6,1.2-1.2,1.5c0.5-0.1,1-0.2,1.5-0.4C-26.4,8.9-26.8,9.4-27.3,9.8z"/>
<g>
	<circle class="st0" cx="-32.5" cy="12.5" r="11.4"/>
	<path class="st1" d="M-29.8,8c0-0.1-0.1-0.2-0.2-0.2c-0.5-0.2-1.1-0.3-1.6-0.3c-0.5,0-1,0.1-1.5,0.4l0,0c-0.2,0.1-0.4,0.3-0.6,0.5
		c-0.2,0.3-0.3,0.6-0.4,1c0,0.3-0.1,0.6-0.1,0.9H-35c-0.1,0-0.1,0-0.2,0.1c0,0-0.1,0.1-0.1,0.1v1.4c0,0.1,0.1,0.2,0.2,0.2
		c0,0,0,0,0,0h1.1c0,1,0,2.4,0,3.6v1.7c0,0.1,0.1,0.2,0.2,0.2h1.9c0.1,0,0.2-0.1,0.2-0.2c0,0,0-1.2,0-2.4c0-1.1,0-2.2,0-2.8h1
		c0.1,0,0.1,0,0.2-0.1c0,0,0.1-0.1,0.1-0.1v-1.3c0-0.1,0-0.1-0.1-0.2c0,0-0.1-0.1-0.1-0.1h-0.1h-0.2h-0.9c0-0.1,0-0.3,0-0.4
		c0-0.1,0-0.2,0.1-0.3c0-0.1,0-0.1,0.1-0.1c0.1-0.1,0.3-0.2,0.4-0.1c0.3,0,0.5,0.1,0.7,0.2h0.2l0,0l0,0l0,0l0,0
		c0-0.1,0.1-0.4,0.2-0.6c0.1-0.3,0.1-0.3,0.1-0.4c0-0.1,0-0.2,0-0.4C-29.9,8.2-29.8,8.1-29.8,8z M-31.6,9.1
		c-0.1,0.1-0.2,0.1-0.3,0.2c-0.1,0.1-0.2,0.3-0.2,0.5c0,0.2-0.1,0.4-0.1,0.7v0.1c0,0.1,0.1,0.2,0.2,0.2c0,0,0,0,0,0
		c0.3,0,0.8,0,1.1,0l0,0v0.9c-0.1,0-0.3,0-0.4,0h-0.6c-0.1,0-0.2,0.1-0.2,0.2c0,0,0,0,0,0c0,0.4,0,1.7,0,3c0,0.6,0,1.2,0,1.7v0.5
		h-1.4v-1.5c0-1.2,0-2.8-0.1-3.8c0-0.1-0.1-0.2-0.2-0.2h-1v-1h0.8c0.1,0,0.2-0.1,0.2-0.2c0-0.4,0-0.9,0.2-1.3
		c0.1-0.2,0.1-0.4,0.3-0.5c0.1-0.2,0.3-0.3,0.4-0.4l0,0c0.4-0.2,0.8-0.3,1.3-0.3c0.5,0,0.9,0.1,1.4,0.2c0,0.1,0,0.2,0,0.2
		c0,0.2-0.1,0.4-0.1,0.5l-0.1,0.2C-30.6,9-30.9,9-31.1,9C-31.3,9-31.5,9-31.6,9.1z"/>
</g>
<g id="Layer_2_1_">
	<g id="Layer_1-2">
		<circle class="st0" cx="12.5" cy="12.5" r="11.4"/>
		<path class="st2" d="M10.5,5.4c0.5,0.1,0.8,0.5,0.9,1c0.3,0.7,0.5,1.4,0.6,2.2c0.1,0.4-0.1,0.8-0.5,1c-0.4,0.2-0.8,0.4-1.2,0.5
			c-0.3,0.1-0.4,0.2-0.2,0.6c0.7,2.1,2,4,3.6,5.5c0.2,0.2,0.4,0.2,0.6,0c0.3-0.3,0.5-0.6,0.8-0.8c0.2-0.2,0.6-0.3,0.9-0.2
			c0.1,0,0.2,0.1,0.3,0.1c0.7,0.4,1.3,0.9,1.8,1.5c0.1,0.1,0.2,0.2,0.2,0.3c0.4,0.4,0.3,1,0,1.4c-0.5,0.6-1.3,1.1-2.1,1.2l-0.2,0
			h-0.7c-0.2-0.1-0.5-0.1-0.7-0.2c-0.8-0.2-1.5-0.6-2.2-1.1c-1.3-1-2.4-2.2-3.3-3.6c-0.9-1.4-1.5-2.9-1.8-4.5
			C7.5,9.9,7.5,9.5,7.4,9.2V8.6c0,0,0-0.1,0-0.1c0.1-0.9,0.5-1.7,1.2-2.3c0.4-0.4,0.9-0.6,1.5-0.8L10.5,5.4z"/>
	</g>
</g>
<g>
	<circle class="st0" cx="57.5" cy="12.5" r="11.4"/>
	<g class="st3">
		<circle class="st4" cx="57.5" cy="12.5" r="2.2"/>
		<circle class="st4" cx="60.4" cy="9.8" r="0.3"/>
		<path class="st5" d="M54.9,7.7h5.1c1.2,0,2.2,1,2.2,2.2v5.1c0,1.2-1,2.2-2.2,2.2h-5.1c-1.2,0-2.2-1-2.2-2.2V9.9
			C52.7,8.7,53.7,7.7,54.9,7.7z"/>
	</g>
</g>
<g id="Layer_2_2_">
	<g id="Layer_1-2_1_">
		<circle class="st0" cx="102.5" cy="12.5" r="11.4"/>
		<path class="st6" d="M109.6,8.1v8.8c-0.1,0.4-0.4,0.7-0.8,0.8c-0.1,0-0.2,0.1-0.3,0.1H96.6l-0.1,0c-0.5,0-0.9-0.4-1-0.9V8.1
			c0.1-0.4,0.5-0.8,0.9-0.9c0.1,0,0.2,0,0.3-0.1h11.7h0.1C109,7.2,109.5,7.6,109.6,8.1z M102.5,7.9h-5.7c-0.1,0-0.1,0-0.2,0
			c-0.2,0-0.3,0.1-0.3,0.3c0,0.2,0.1,0.2,0.2,0.3l5.6,4.2c0.2,0.2,0.6,0.2,0.8,0l3.6-2.7l2-1.5c0.1-0.1,0.2-0.2,0.1-0.4
			c0-0.1-0.1-0.1-0.2-0.2c-0.1,0-0.2-0.1-0.3-0.1L102.5,7.9z M102.5,17.1h5.7c0.1,0,0.1,0,0.2,0c0.2,0,0.3-0.1,0.3-0.3
			c0.1-0.2-0.1-0.3-0.2-0.4l-4.6-3.4c-0.2-0.1-0.2-0.1-0.3,0c-0.3,0.2-0.6,0.3-0.9,0.4c-0.5,0-1-0.1-1.3-0.4c-0.1-0.1-0.1-0.1-0.2,0
			c0,0,0,0,0,0c-0.9,0.7-1.8,1.4-2.7,2.1l-1.9,1.5c-0.1,0.1-0.2,0.2-0.1,0.4c0,0.1,0.1,0.1,0.2,0.2c0.1,0,0.2,0,0.3,0L102.5,17.1z
			 M108.7,9.3l-4.3,3.2l4.3,3.2V9.3z M100.6,12.5l-4.3-3.2v6.5L100.6,12.5z"/>
	</g>
</g>
</svg>
