<svg xmlns="http://www.w3.org/2000/svg" viewBox="0 0 49.33 49.33"><defs><style>.cls-1{fill:#5a3c17;}.cls-2{fill:#fff;}</style></defs><title>Asset 2ldpi</title><g id="Layer_2" data-name="Layer 2"><g id="Layer_1-2" data-name="Layer 1"><circle class="cls-1" cx="24.67" cy="24.67" r="24.67"/><path class="cls-2" d="M24.76,8.24A12.15,12.15,0,0,1,36.95,20.61a14.06,14.06,0,0,1-1.87,6,77.6,77.6,0,0,1-8.56,12.87q-.44.56-.89,1.1c-.6.72-1.09.72-1.69,0a86.34,86.34,0,0,1-8-11.3,51.54,51.54,0,0,1-2.4-4.78,11.41,11.41,0,0,1,3.08-13.08A11.91,11.91,0,0,1,24.76,8.24Zm0,30.65c.85-1.1,1.65-2.11,2.42-3.15A57.37,57.37,0,0,0,34.15,24.5a11.92,11.92,0,0,0,1.06-4.14A10.42,10.42,0,0,0,16.77,13.7a9.72,9.72,0,0,0-1.28,11.06A78.56,78.56,0,0,0,24.78,38.89Z"/><path class="cls-2" d="M19.9,19.43a5.05,5.05,0,1,1,5,5.11A5,5,0,0,1,19.9,19.43ZM25,22.8a3.34,3.34,0,1,0-3.38-3.34A3.34,3.34,0,0,0,25,22.8Z"/></g></g></svg>