<svg xmlns="http://www.w3.org/2000/svg" viewBox="0 0 49.33 49.33"><defs><style>.cls-1{fill:#5a3c17;}.cls-2{fill:#fff;}</style></defs><title>Asset 3ldpi</title><g id="Layer_2" data-name="Layer 2"><g id="Layer_1-2" data-name="Layer 1"><circle class="cls-1" cx="24.67" cy="24.67" r="24.67"/><path class="cls-2" d="M40.08,15.21v19A2.41,2.41,0,0,1,38.28,36c-.22.07-.44.12-.66.17H11.8l-.23-.07a2.59,2.59,0,0,1-2.24-1.86V15.15a2.5,2.5,0,0,1,2-1.85c.21-.06.42-.09.64-.13H37.44l.17,0A2.59,2.59,0,0,1,40.08,15.21Zm-15.36-.59H12.41a2.09,2.09,0,0,0-.45,0,.77.77,0,0,0-.68.58c-.07.34.16.53.4.71L23.82,25a1.27,1.27,0,0,0,1.79,0l7.83-5.86,4.37-3.27a.62.62,0,0,0-.14-1.16,1.75,1.75,0,0,0-.64-.11Zm0,20.11H37a2.59,2.59,0,0,0,.39,0,.83.83,0,0,0,.75-.55c.11-.36-.12-.57-.38-.77L27.78,26c-.36-.27-.37-.28-.74,0a3.72,3.72,0,0,1-2,.83,3.68,3.68,0,0,1-2.85-.94.32.32,0,0,0-.48,0q-3,2.23-5.93,4.45l-4.2,3.15a.63.63,0,0,0,.14,1.18,1.79,1.79,0,0,0,.65.09ZM38.13,17.68l-9.35,7,9.35,7Zm-17.5,7-9.35-7v14Z"/></g></g></svg>