<svg xmlns="http://www.w3.org/2000/svg" viewBox="0 0 49.33 49.33"><defs><style>.cls-1{fill:#5a3c17;}.cls-2{fill:none;stroke:#fff;stroke-miterlimit:10;stroke-width:1.5px;}</style></defs><title>Asset 5ldpi</title><g id="Layer_2" data-name="Layer 2"><g id="Layer_1-2" data-name="Layer 1"><circle class="cls-1" cx="24.67" cy="24.67" r="24.67"/><path class="cls-2" d="M20.36,9.31a3,3,0,0,1,2,2.1,22.54,22.54,0,0,1,1.27,4.67,1.94,1.94,0,0,1-1.09,2.15c-.86.44-1.76.81-2.64,1.19-.68.3-.79.5-.54,1.2a30.54,30.54,0,0,0,7.79,12c.46.44.78.39,1.22-.08a20.31,20.31,0,0,1,1.84-1.81,2.23,2.23,0,0,1,2-.53,2.5,2.5,0,0,1,.71.31,19,19,0,0,1,4,3.24,5.83,5.83,0,0,1,.47.58,2.3,2.3,0,0,1-.1,3.11A7.08,7.08,0,0,1,32.77,40l-.34.07H31c-.52-.11-1-.19-1.55-.33a15,15,0,0,1-4.67-2.47,26.6,26.6,0,0,1-7.09-7.82,26.3,26.3,0,0,1-3.8-9.84c-.11-.67-.17-1.35-.26-2V16.26a1.54,1.54,0,0,0,.06-.24,7.34,7.34,0,0,1,2.59-5,7.71,7.71,0,0,1,3.17-1.7Z"/></g></g></svg>