<?xml version="1.0" encoding="utf-8"?>
<!-- Generator: Adobe Illustrator 22.1.0, SVG Export Plug-In . SVG Version: 6.00 Build 0)  -->
<svg version="1.1" id="Layer_1" xmlns="http://www.w3.org/2000/svg" xmlns:xlink="http://www.w3.org/1999/xlink" x="0px" y="0px"
	 viewBox="0 0 25 25" style="enable-background:new 0 0 25 25;" xml:space="preserve">
<style type="text/css">
	.st0{fill:#FF5100;}
	.st1{fill-rule:evenodd;clip-rule:evenodd;fill:#6F7271;}
	.st2{fill:#000;}
	.st3{fill-rule:evenodd;clip-rule:evenodd;fill:#222222;}
	.st4{fill:#F15A28;}
	.st5{fill:#F5A800;}
	.st6{fill:#BC4700;}
	.st7{fill:#222222;}
	.st8{fill-rule:evenodd;clip-rule:evenodd;fill:#000;}
</style>
<g>
	<path class="st2" d="M12.5,1.3c-6.2,0-11.2,5-11.2,11.2c0,6.2,5,11.3,11.2,11.3s11.2-5,11.2-11.3C23.7,6.3,18.7,1.3,12.5,1.3z
		 M16.6,7.2h-1.5c-1.2,0-1.4,0.6-1.4,1.4v1.8h2.8l-0.4,2.8h-2.4v7.2h-2.9v-7.2H8.4v-2.8h2.4V8.3c0-2.4,1.5-3.7,3.6-3.7
		c1,0,1.9,0.1,2.2,0.1V7.2z"/>
</g>
</svg>
