<?xml version="1.0" encoding="utf-8"?>
<!-- Generator: Adobe Illustrator 22.1.0, SVG Export Plug-In . SVG Version: 6.00 Build 0)  -->
<svg version="1.1" id="Layer_1" xmlns="http://www.w3.org/2000/svg" xmlns:xlink="http://www.w3.org/1999/xlink" x="0px" y="0px"
	 viewBox="0 0 25 25" style="enable-background:new 0 0 25 25;" xml:space="preserve">
<style type="text/css">
	.st0{fill:#FF5100;}
	.st1{fill-rule:evenodd;clip-rule:evenodd;fill:#6F7271;}
	.st2{fill:#5a3c17;}
	.st3{fill-rule:evenodd;clip-rule:evenodd;fill:#222222;}
	.st4{fill:#F15A28;}
	.st5{fill:#F5A800;}
	.st6{fill:#BC4700;}
	.st7{fill:#222222;}
	.st8{fill-rule:evenodd;clip-rule:evenodd;fill:#000;}
</style>
<g>
	<path class="st2" d="M12.5,1.3c-6.2,0-11.2,5-11.2,11.2c0,6.2,5,11.3,11.2,11.3s11.3-5,11.3-11.3C23.7,6.3,18.7,1.3,12.5,1.3z
		 M17.7,9.8c0,0.1,0,0.2,0,0.4c0,3.6-2.7,7.8-7.6,7.8c-1.5,0-2.9-0.5-4.1-1.2c0.2,0,0.4,0,0.6,0c1.3,0,2.4-0.4,3.3-1.2
		c-1.2,0-2.2-0.8-2.5-1.9c0.2,0,0.3,0,0.5,0c0.2,0,0.5,0,0.7-0.1c-1.2-0.3-2.1-1.4-2.1-2.7v0c0.4,0.2,0.8,0.3,1.2,0.3
		C7,10.7,6.5,9.9,6.5,8.9c0-0.5,0.1-1,0.4-1.4c1.3,1.7,3.3,2.8,5.5,2.9c0-0.2-0.1-0.4-0.1-0.6c0-1.5,1.2-2.7,2.7-2.7
		c0.8,0,1.5,0.3,2,0.9c0.6-0.1,1.2-0.4,1.7-0.7c-0.2,0.6-0.6,1.2-1.2,1.5C18,8.7,18.5,8.6,19,8.4C18.7,8.9,18.2,9.4,17.7,9.8z"/>
</g>
</svg>
